HIERARCHY
ROOT Hips
{
  OFFSET 5.84602e-005 68.8428 3.50346
  CHANNELS 6 Xposition Yposition Zposition Zrotation Xrotation Yrotation
  JOINT Spine
  {
    OFFSET 0 8.597 -4.6522
    CHANNELS 3 Zrotation Xrotation Yrotation
    JOINT Spine1
    {
      OFFSET 0 7.8454 0.4098
      CHANNELS 3 Zrotation Xrotation Yrotation
      JOINT Spine2
      {
        OFFSET 0 9.7078 -2.1609
        CHANNELS 3 Zrotation Xrotation Yrotation
        JOINT Neck
        {
          OFFSET 0 21.8761 -0.4549
          CHANNELS 3 Zrotation Xrotation Yrotation
          JOINT Head
          {
            OFFSET 0 12.3537 3.3602
            CHANNELS 3 Zrotation Xrotation Yrotation
            End Site
            {
              OFFSET 0.0001 18.9506 0.5657
            }
          }
        }
        JOINT LeftShoulder
        {
          OFFSET 2.2086 21.1115 7.2329
          CHANNELS 3 Zrotation Xrotation Yrotation
          JOINT LeftArm
          {
            OFFSET 13.1193 3.0282 -4.8998
            CHANNELS 3 Zrotation Xrotation Yrotation
            JOINT LeftForeArm
            {
              OFFSET 27.4081 -0.0973053 -0.2375
              CHANNELS 3 Zrotation Xrotation Yrotation
              JOINT LeftHand
              {
                OFFSET 22.8641 0.0662994 -0.1369
                CHANNELS 3 Zrotation Xrotation Yrotation
                JOINT LeftHandIndex1
                {
                  OFFSET 8.8614 0.775009 2.4612
                  CHANNELS 3 Zrotation Xrotation Yrotation
                  JOINT LeftHandIndex2
                  {
                    OFFSET 3.3146 -0.808304 0.5841
                    CHANNELS 3 Zrotation Xrotation Yrotation
                    JOINT LeftHandIndex3
                    {
                      OFFSET 2.2628 -0.552002 0.3989
                      CHANNELS 3 Zrotation Xrotation Yrotation
                      End Site
                      {
                        OFFSET 1.6102 -0.4807 0.2612
                      }
                    }
                  }
                }
                JOINT LeftHandMiddle1
                {
                  OFFSET 8.9937 0.895004 0.2143
                  CHANNELS 3 Zrotation Xrotation Yrotation
                  JOINT LeftHandMiddle2
                  {
                    OFFSET 4.0984 0.0113983 -0.0242
                    CHANNELS 3 Zrotation Xrotation Yrotation
                    JOINT LeftHandMiddle3
                    {
                      OFFSET 2.2716 0.00689697 -0.0138001
                      CHANNELS 3 Zrotation Xrotation Yrotation
                      End Site
                      {
                        OFFSET 2.0404 -0.1441 0.0027
                      }
                    }
                  }
                }
                JOINT LeftHandRing1
                {
                  OFFSET 8.5234 0.597198 -2.0164
                  CHANNELS 3 Zrotation Xrotation Yrotation
                  JOINT LeftHandRing2
                  {
                    OFFSET 3.7188 -0.188293 -0.2328
                    CHANNELS 3 Zrotation Xrotation Yrotation
                    JOINT LeftHandRing3
                    {
                      OFFSET 2.1191 -0.106598 -0.1332
                      CHANNELS 3 Zrotation Xrotation Yrotation
                      End Site
                      {
                        OFFSET 1.8737 -0.2304 -0.0886
                      }
                    }
                  }
                }
                JOINT LeftHandPinky1
                {
                  OFFSET 7.9094 -0.601089 -3.4825
                  CHANNELS 3 Zrotation Xrotation Yrotation
                  JOINT LeftHandPinky2
                  {
                    OFFSET 2.2874 -0.477005 -0.6314
                    CHANNELS 3 Zrotation Xrotation Yrotation
                    JOINT LeftHandPinky3
                    {
                      OFFSET 1.6774 -0.349396 -0.4633
                      CHANNELS 3 Zrotation Xrotation Yrotation
                      End Site
                      {
                        OFFSET 1.4888 -0.4091 -0.3416
                      }
                    }
                  }
                }
                JOINT LeftHandThumb1
                {
                  OFFSET 1.833 -1.3875 1.3896
                  CHANNELS 3 Zrotation Xrotation Yrotation
                  JOINT LeftHandThumb2
                  {
                    OFFSET 3.4129 -1.121 2.5732
                    CHANNELS 3 Zrotation Xrotation Yrotation
                    JOINT LeftHandThumb3
                    {
                      OFFSET 2.2474 -0.804199 1.6192
                      CHANNELS 3 Zrotation Xrotation Yrotation
                      End Site
                      {
                        OFFSET 1.6527 -0.5689 1.1317
                      }
                    }
                  }
                }
              }
            }
          }
        }
        JOINT RightShoulder
        {
          OFFSET -2.2086 21.1115 7.2329
          CHANNELS 3 Zrotation Xrotation Yrotation
          JOINT RightArm
          {
            OFFSET -13.1216 3.0287 -4.9007
            CHANNELS 3 Zrotation Xrotation Yrotation
            JOINT RightForeArm
            {
              OFFSET -27.4081 -0.0973053 -0.2375
              CHANNELS 3 Zrotation Xrotation Yrotation
              JOINT RightHand
              {
                OFFSET -22.8641 0.0664063 -0.1369
                CHANNELS 3 Zrotation Xrotation Yrotation
                JOINT RightHandIndex1
                {
                  OFFSET -8.8614 0.774994 2.4612
                  CHANNELS 3 Zrotation Xrotation Yrotation
                  JOINT RightHandIndex2
                  {
                    OFFSET -3.3146 -0.808304 0.5841
                    CHANNELS 3 Zrotation Xrotation Yrotation
                    JOINT RightHandIndex3
                    {
                      OFFSET -2.2628 -0.552002 0.3989
                      CHANNELS 3 Zrotation Xrotation Yrotation
                      End Site
                      {
                        OFFSET -1.6102 -0.4807 0.2612
                      }
                    }
                  }
                }
                JOINT RightHandMiddle1
                {
                  OFFSET -8.9937 0.894989 0.2143
                  CHANNELS 3 Zrotation Xrotation Yrotation
                  JOINT RightHandMiddle2
                  {
                    OFFSET -4.0984 0.0113983 -0.0242
                    CHANNELS 3 Zrotation Xrotation Yrotation
                    JOINT RightHandMiddle3
                    {
                      OFFSET -2.2716 0.00691223 -0.0138001
                      CHANNELS 3 Zrotation Xrotation Yrotation
                      End Site
                      {
                        OFFSET -2.0404 -0.1441 0.0027
                      }
                    }
                  }
                }
                JOINT RightHandRing1
                {
                  OFFSET -8.5234 0.597198 -2.0164
                  CHANNELS 3 Zrotation Xrotation Yrotation
                  JOINT RightHandRing2
                  {
                    OFFSET -3.7188 -0.188309 -0.2328
                    CHANNELS 3 Zrotation Xrotation Yrotation
                    JOINT RightHandRing3
                    {
                      OFFSET -2.1191 -0.106598 -0.1332
                      CHANNELS 3 Zrotation Xrotation Yrotation
                      End Site
                      {
                        OFFSET -1.8737 -0.2304 -0.0886
                      }
                    }
                  }
                }
                JOINT RightHandPinky1
                {
                  OFFSET -7.9094 -0.601105 -3.4825
                  CHANNELS 3 Zrotation Xrotation Yrotation
                  JOINT RightHandPinky2
                  {
                    OFFSET -2.2874 -0.477005 -0.6314
                    CHANNELS 3 Zrotation Xrotation Yrotation
                    JOINT RightHandPinky3
                    {
                      OFFSET -1.6774 -0.349396 -0.4633
                      CHANNELS 3 Zrotation Xrotation Yrotation
                      End Site
                      {
                        OFFSET -1.4888 -0.4091 -0.3416
                      }
                    }
                  }
                }
                JOINT RightHandThumb1
                {
                  OFFSET -1.833 -1.38751 1.3896
                  CHANNELS 3 Zrotation Xrotation Yrotation
                  JOINT RightHandThumb2
                  {
                    OFFSET -3.41299 -1.12099 2.5732
                    CHANNELS 3 Zrotation Xrotation Yrotation
                    JOINT RightHandThumb3
                    {
                      OFFSET -2.24741 -0.804108 1.6192
                      CHANNELS 3 Zrotation Xrotation Yrotation
                      End Site
                      {
                        OFFSET -1.6527 -0.5689 1.1317
                      }
                    }
                  }
                }
              }
            }
          }
        }
      }
    }
  }
  JOINT RightUpLeg
  {
    OFFSET -9.1966 3.8861 -0.7581
    CHANNELS 3 Zrotation Xrotation Yrotation
    JOINT RightLeg
    {
      OFFSET -0.7359 -41.0265 0
      CHANNELS 3 Zrotation Xrotation Yrotation
      JOINT RightFoot
      {
        OFFSET 0 -40.2855 0
        CHANNELS 3 Zrotation Xrotation Yrotation
        JOINT RightToeBase
        {
          OFFSET 0 -5.6122 11.7359
          CHANNELS 3 Zrotation Xrotation Yrotation
          End Site
          {
            OFFSET 0 0 7.8731
          }
        }
      }
    }
  }
  JOINT LeftUpLeg
  {
    OFFSET 9.1965 3.8864 -0.7581
    CHANNELS 3 Zrotation Xrotation Yrotation
    JOINT LeftLeg
    {
      OFFSET 0.7359 -41.0268 0
      CHANNELS 3 Zrotation Xrotation Yrotation
      JOINT LeftFoot
      {
        OFFSET 0 -40.2855 0
        CHANNELS 3 Zrotation Xrotation Yrotation
        JOINT LeftToeBase
        {
          OFFSET 0 -5.6122 11.7359
          CHANNELS 3 Zrotation Xrotation Yrotation
          End Site
          {
            OFFSET 0 0 7.8731
          }
        }
      }
    }
  }
}
MOTION
Frames:	6
Frame Time:	0.0333333
5.84602e-005 68.8428 3.50346 0 0 -0 0 0 -0 0 0 -0 0 0 -0 0 0 -0 0 0 -0 0 0 -0 0 0 -0 0 0 -0 0 0 -0 0 0 -0 0 0 -0 0 0 -0 0 0 -0 -0.0146107 -8.87603e-005 -2.63497e-007 2.99804e-018 -2.42657e-020 -1.42182e-022 0 0 -0 -0.0187562 -0.001176 5.858e-005 5.06224e-018 3.88251e-019 1.21329e-020 0 0 -0 -0.012269 -0.00324817 0.000675346 -1.74678e-018 3.88251e-019 -0 0 0 -0 0 0 -0 0 0 -0 0 0 -0 0 0 -0 0 0 -0 0 0 -0 0 0 -0 0 0 -0 0 0 -0 0 0 -0 0.0149955 -9.10982e-005 2.64101e-007 -9.69331e-018 1.21329e-020 -4.7394e-023 0 0 -0 0.0189956 -0.00119102 -5.96516e-005 -5.41541e-019 0 2.42657e-020 0 0 -0 0.0122698 -0.00324857 -0.000673756 -2.00796e-019 0 -1.94126e-019 0 0 -0 0 0 -0 0 0 -0 3.39842 1.33031 -0.0637918 -5.65207e-008 0.834868 -0.000436188 -3.39935 -2.16518 -0.0642563 -8.89002e-024 -1.18485e-023 -1.48106e-024 -3.39844 1.35642 0.0640283 -3.18788e-007 0.782166 -0.000588827 3.39931 -2.13858 0.0634662 1.1399e-023 0 -0 
-5.85741 11.6658 23.9558 0 0 -0 -0.0333365 8.00551 -0.102284 -0.0528605 16.0111 -0.202829 -0.0528605 16.0111 -0.202829 0.102955 -17.8673 0.0356534 1.30311 -19.144 0.335026 -2.3728 -0.0373867 3.07246 -56.4071 -15.8994 -45.1668 2.42102 -4.48915 -72.8656 -44.0022 6.62887e-006 -1.21673e-005 -2.20695e-032 -1.59028e-015 -7.95139e-016 -2.83142e-007 2.11689e-007 2.38274e-007 2.83142e-007 -2.11689e-007 -2.38274e-007 -2.20695e-032 -1.59028e-015 -7.95139e-016 -0.014653 -8.85404e-005 1.28665e-006 2.83145e-007 -2.11658e-007 -2.38301e-007 -2.20695e-032 -1.59028e-015 -7.95139e-016 -0.0187883 -0.00117026 5.52465e-005 2.70385e-007 -3.44416e-006 1.89402e-006 -2.20695e-032 -1.59028e-015 -7.95139e-016 -0.0121507 -0.00321994 0.000673817 2.83136e-007 -2.11665e-007 -2.38304e-007 -2.20695e-032 -1.59028e-015 -7.95139e-016 -2.83142e-007 2.11689e-007 2.38274e-007 2.83142e-007 -2.11689e-007 -2.38274e-007 7.99915 -0.194688 -0.00216376 53.1195 20.9993 34.5846 -1.27698e-006 8.97969e-007 68.9991 6.99684 -3.86402e-007 -5.10502e-006 -3.53113e-031 -6.36111e-015 -3.18055e-015 -1.76556e-031 -3.18055e-015 -3.18055e-015 3.18055e-015 -3.18055e-015 -6.36111e-015 -3.53113e-031 -6.36111e-015 -3.18055e-015 0.0149596 -8.64177e-005 -1.78153e-006 6.36111e-015 3.18055e-015 -0 -3.53113e-031 -6.36111e-015 -3.18055e-015 0.0190253 -0.00119669 -5.24506e-005 -3.18055e-015 3.18055e-015 -3.18055e-015 -3.53113e-031 -6.36111e-015 -3.18055e-015 0.012255 -0.00324397 -0.000674942 -6.36111e-015 0 3.18055e-015 -3.53113e-031 -6.36111e-015 -3.18055e-015 -1.76556e-031 -3.18055e-015 -3.18055e-015 3.18055e-015 -3.18055e-015 -6.36111e-015 -60.898 -22.9091 -86.282 -173.658 17.3615 117.683 6.2014 29.9465 39.1949 -8.94531e-016 4.82053e-015 -0 131.517 -57.6308 133.185 169.563 61.7755 -157.085 8.73142 -8.51468 1.98036 -7.39838e-007 4.71164e-007 -2.62828e-008 
-5.85741 11.6658 23.9558 0 0 -0 -0.0333365 8.00551 -0.102284 -0.0528605 16.0111 -0.202829 -0.0528605 16.0111 -0.202829 0.465043 -17.7912 0.411469 1.30311 -19.144 0.335026 -2.3728 -0.0373867 3.07246 -56.4071 -15.8994 -45.1668 2.42102 -4.48915 -72.8656 -44.0022 8.57116e-006 -1.20497e-005 3.59305e-007 -5.80385e-007 1.25417e-006 -3.59305e-007 5.80385e-007 -1.25417e-006 3.59305e-007 -5.80385e-007 1.25417e-006 3.59305e-007 -5.80385e-007 1.25417e-006 -0.0146454 -8.913e-005 4.92145e-006 -2.83145e-007 2.11658e-007 2.38301e-007 3.59305e-007 -5.80385e-007 1.25417e-006 -0.0187906 -0.0011718 5.9285e-005 -2.83143e-007 2.1165e-007 2.38311e-007 3.59305e-007 -5.80385e-007 1.25417e-006 -0.0121536 -0.00321191 0.000663524 -2.83136e-007 2.11665e-007 2.38304e-007 3.59305e-007 -5.80385e-007 1.25417e-006 -3.59305e-007 5.80385e-007 -1.25417e-006 3.59305e-007 -5.80385e-007 1.25417e-006 7.99915 -0.194688 -0.00216357 53.1195 20.9993 34.5846 -2.3477e-005 -1.20491e-005 69.1902 7.26342 -1.45516e-006 -4.46613e-006 -1.76556e-031 -3.18055e-015 -3.18055e-015 3.18055e-015 0 -0 3.18055e-015 0 -6.36111e-015 -1.76556e-031 -3.18055e-015 -3.18055e-015 0.0150285 -8.99969e-005 -4.52496e-006 9.54166e-015 -3.18055e-015 -6.36111e-015 -1.76556e-031 -3.18055e-015 -3.18055e-015 0.0189817 -0.00119274 -6.58306e-005 9.54166e-015 -6.36111e-015 -9.54166e-015 -1.76556e-031 -3.18055e-015 -3.18055e-015 0.0122679 -0.00324142 -0.000674746 -9.54166e-015 0 3.18055e-015 -1.76556e-031 -3.18055e-015 -3.18055e-015 3.18055e-015 0 -0 3.18055e-015 0 -6.36111e-015 -60.8981 -22.909 -86.282 -173.658 17.3614 117.683 6.20128 29.9465 39.195 -1.61695e-006 -7.05491e-006 -4.15471e-006 131.517 -57.6308 133.185 169.563 61.7755 -157.085 8.73142 -8.5147 1.98036 1.0357e-007 -7.38212e-008 -3.24595e-006 
-5.85741 11.6658 23.9558 0 0 -0 -0.0333365 8.00552 -0.102284 -0.0528605 16.0111 -0.202829 -0.0528605 16.0111 -0.202829 0.82689 -17.7127 0.78707 1.30311 -19.144 0.335026 -2.3728 -0.0374147 3.07245 -56.4071 -15.8994 -45.1668 2.42104 -4.48914 -72.8657 -44.0022 -5.11717e-006 -3.76676e-006 4.45447e-006 -1.7306e-006 1.20672e-007 -3.3219e-006 8.83847e-007 -1.07377e-006 6.36111e-015 2.38542e-015 5.56597e-015 4.45447e-006 -1.7306e-006 1.20672e-007 -0.0146392 -8.31144e-005 -1.43586e-006 -1.27222e-014 7.15625e-015 -8.74653e-015 4.45447e-006 -1.7306e-006 1.20672e-007 -0.0187746 -0.00117348 5.60783e-005 -1.27222e-014 -1.59028e-015 -3.97569e-015 4.45447e-006 -1.7306e-006 1.20672e-007 -0.0121548 -0.00321842 0.000673457 -1.59028e-014 5.56597e-015 9.54166e-015 4.45447e-006 -1.7306e-006 1.20672e-007 -3.3219e-006 8.83847e-007 -1.07377e-006 6.36111e-015 2.38542e-015 5.56597e-015 7.99915 -0.19472 -0.00215942 53.1195 20.9993 34.5846 -1.05209e-005 -6.6329e-007 69.3814 7.53025 2.72392e-006 7.06133e-006 6.36111e-015 3.18055e-015 -6.36111e-015 4.60548e-007 4.12587e-007 -5.83447e-007 -3.53113e-031 3.18055e-015 6.36111e-015 6.36111e-015 3.18055e-015 -6.36111e-015 0.0150086 -9.00391e-005 -5.2388e-006 3.53113e-031 -3.18055e-015 6.36111e-015 6.36111e-015 3.18055e-015 -6.36111e-015 0.0189988 -0.00118893 -6.13828e-005 -3.18055e-015 3.18055e-015 3.18055e-015 6.36111e-015 3.18055e-015 -6.36111e-015 0.0122827 -0.00324393 -0.000675926 6.36111e-015 0 -6.36111e-015 6.36111e-015 3.18055e-015 -6.36111e-015 4.60548e-007 4.12587e-007 -5.83447e-007 -3.53113e-031 3.18055e-015 6.36111e-015 -60.8981 -22.9089 -86.2821 -173.658 17.3614 117.683 6.20133 29.9465 39.195 -1.78906e-015 2.80783e-015 -0 131.517 -57.6307 133.185 169.563 61.7755 -157.085 8.73143 -8.51465 1.98037 -7.03612e-007 1.95547e-007 -3.255e-006 
-5.85741 11.6658 23.9558 0 0 -0 -0.0333365 8.00552 -0.102284 -0.0528605 16.0111 -0.202829 -0.0528605 16.0111 -0.202829 1.18847 -17.6319 1.16243 1.30311 -19.144 0.335026 -2.3728 -0.0374147 3.07245 -56.4071 -15.8993 -45.1668 2.42103 -4.48915 -72.8656 -44.0022 -9.42181e-007 -3.7383e-006 -2.83142e-007 2.11689e-007 2.38274e-007 -1.82074e-030 8.74653e-015 1.19271e-014 -5.66284e-007 4.23378e-007 4.76548e-007 -2.83142e-007 2.11689e-007 2.38274e-007 -0.0146365 -8.35759e-005 1.16785e-007 -5.66289e-007 4.23317e-007 4.76602e-007 -2.83142e-007 2.11689e-007 2.38274e-007 -0.0187358 -0.00117204 6.55819e-005 -5.66286e-007 4.233e-007 4.76623e-007 -2.83142e-007 2.11689e-007 2.38274e-007 -0.0121447 -0.00321731 0.000671325 -5.66273e-007 4.23329e-007 4.76609e-007 -2.83142e-007 2.11689e-007 2.38274e-007 -1.82074e-030 8.74653e-015 1.19271e-014 -5.66284e-007 4.23378e-007 4.76548e-007 7.99915 -0.194721 -0.0021594 53.1195 20.9993 34.5846 -3.57146e-006 2.39731e-006 69.5726 7.79725 1.98295e-006 4.70958e-006 -3.18055e-015 1.90833e-014 -2.8625e-014 -9.54166e-015 1.59028e-014 -2.22639e-014 -3.18055e-015 1.90833e-014 -1.90833e-014 -3.18055e-015 1.90833e-014 -2.8625e-014 0.0150017 -8.8328e-005 2.38486e-008 -0 -6.36111e-015 -0 -3.18055e-015 1.90833e-014 -2.8625e-014 0.0189781 -0.00119907 -6.35661e-005 -1.59028e-014 1.59028e-014 -1.59028e-014 -3.18055e-015 1.90833e-014 -2.8625e-014 0.0122482 -0.0032443 -0.000677879 1.27222e-014 3.18055e-015 -0 -3.18055e-015 1.90833e-014 -2.8625e-014 -9.54166e-015 1.59028e-014 -2.22639e-014 -3.18055e-015 1.90833e-014 -1.90833e-014 -60.8981 -22.9091 -86.282 -173.658 17.3615 117.683 6.20131 29.9465 39.195 3.92783e-006 6.54627e-007 -2.69933e-006 131.517 -57.6307 133.185 169.563 61.7755 -157.085 8.73142 -8.51466 1.98037 -1.01013e-007 -3.02693e-007 2.5839e-008 
-5.85741 11.6658 23.9558 0 0 -0 -0.0333363 8.00552 -0.102284 -0.0528601 16.0111 -0.202829 -0.0528601 16.0111 -0.202829 1.54976 -17.5486 1.53752 1.30311 -19.144 0.335026 -2.3728 -0.0374059 3.07245 -56.4071 -15.8994 -45.1668 2.42103 -4.48915 -72.8656 -44.0022 -1.57003e-006 -7.94935e-006 -2.83142e-007 2.11689e-007 2.38274e-007 5.66284e-007 -4.23378e-007 -4.76548e-007 -2.83142e-007 2.11689e-007 2.38274e-007 -2.83142e-007 2.11689e-007 2.38274e-007 -0.0146451 -8.9342e-005 4.68322e-006 -2.83145e-007 2.11658e-007 2.38301e-007 -2.83142e-007 2.11689e-007 2.38274e-007 -0.0187731 -0.00117814 5.85128e-005 -2.83143e-007 2.1165e-007 2.38311e-007 -2.83142e-007 2.11689e-007 2.38274e-007 -0.0121487 -0.00321435 0.00067466 -2.83136e-007 2.11665e-007 2.38304e-007 -2.83142e-007 2.11689e-007 2.38274e-007 5.66284e-007 -4.23378e-007 -4.76548e-007 -2.83142e-007 2.11689e-007 2.38274e-007 7.99915 -0.194704 -0.002161 53.1195 20.9993 34.5846 -7.18916e-006 -8.32939e-006 69.7639 8.06446 7.49228e-006 2.98788e-006 -4.62536e-007 -4.08373e-007 5.84892e-007 -6.36111e-015 3.18055e-015 6.36111e-015 -4.62536e-007 -4.08373e-007 5.84892e-007 -4.62536e-007 -4.08373e-007 5.84892e-007 0.0150204 -8.85498e-005 -9.37054e-006 -4.62546e-007 -4.08296e-007 5.84946e-007 -4.62536e-007 -4.08373e-007 5.84892e-007 0.0190022 -0.00118765 -5.83687e-005 -4.62543e-007 -4.08275e-007 5.84964e-007 -4.62536e-007 -4.08373e-007 5.84892e-007 0.0123074 -0.00326398 -0.000682707 -4.62525e-007 -4.08311e-007 5.84949e-007 -4.62536e-007 -4.08373e-007 5.84892e-007 -6.36111e-015 3.18055e-015 6.36111e-015 -4.62536e-007 -4.08373e-007 5.84892e-007 -60.8982 -22.9089 -86.282 -173.658 17.3614 117.683 6.20133 29.9465 39.195 6.4605e-016 1.63997e-015 -6.36111e-015 131.517 -57.6307 133.185 169.563 61.7755 -157.085 8.73143 -8.51466 1.98038 1.01013e-007 3.02693e-007 -2.5839e-008 
